<svg id="icon-notification" viewBox="0 0 18 18" xmlns="http://www.w3.org/2000/svg" xmlns:xlink= "http://www.w3.org/1999/xlink">
            <g clip-path="url(#clip0)">
<path d="M7.97101 0.0578105C3.9113 0.510693 0.614103 3.73396 0.0801849 7.78375C-0.676307 13.5227 4.01551 18.405 9.69855 17.9738C11.7891 17.8151 13.7459 16.8809 15.2791 15.451L15.4108 15.3282C15.5623 15.187 15.5706 14.9496 15.4293 14.7982L14.9176 14.2495C14.7763 14.098 14.5391 14.0898 14.3876 14.231L14.1133 14.4869C12.4078 16.077 10.0666 16.7925 7.70484 16.3902C4.35744 15.8202 1.78414 12.9783 1.52275 9.59271C1.17713 5.11581 4.78838 1.37466 9.22218 1.50351C13.3104 1.62237 16.4998 5.1111 16.4998 9.20107V9.75028C16.4998 10.6269 15.7445 11.3299 14.8503 11.243C14.071 11.1672 13.4999 10.4668 13.4999 9.6838V6.37532C13.4999 6.16818 13.3319 6.00031 13.1248 6.00031H12.3749C12.2243 6.00031 12.0964 6.09031 12.0367 6.21838C11.2821 5.39527 10.2019 4.87531 8.99985 4.87531C6.72531 4.87531 4.87487 6.72576 4.87487 9.0003C4.87487 11.2748 6.72531 13.1253 8.99985 13.1253C10.4326 13.1253 11.696 12.3902 12.4357 11.2782C12.9927 12.209 14.0275 12.8223 15.2054 12.7434C16.798 12.6367 17.9999 11.2406 17.9999 9.64439V9.0003C17.9999 3.6988 13.392 -0.546947 7.97101 0.0578105ZM8.99985 11.6253C7.55258 11.6253 6.37484 10.4476 6.37484 9.0003C6.37484 7.55302 7.55258 6.37528 8.99985 6.37528C10.4471 6.37528 11.6249 7.55302 11.6249 9.0003C11.6249 10.4476 10.4471 11.6253 8.99985 11.6253Z"></path>
</g>

        </svg>
