<svg id="icon-moments" viewBox="0 0 16 16" xmlns="http://www.w3.org/2000/svg" xmlns:xlink= "http://www.w3.org/1999/xlink">
            <path fill-rule="evenodd" clip-rule="evenodd" d="M4.17361 0.691211C4.17361 0.309611 3.86239 0 3.47839 0C3.09439 0 2.7824 0.309611 2.7824 0.691211V3.56399C2.7824 3.94559 3.09439 4.25439 3.47839 4.25439C3.86239 4.25439 4.17361 3.94559 4.17361 3.56399V0.691211ZM0 6.3272C0 5.9456 0.311196 5.63601 0.695996 5.63601H11.8264H12.5216C13.444 5.63601 14.3288 6 14.9816 6.648C15.6336 7.296 16 8.17441 16 9.09121C16 10.0072 15.6336 10.8856 14.9816 11.5336C14.3288 12.1816 13.444 12.5456 12.5216 12.5456C12.5216 13.4616 12.1552 14.34 11.5032 14.988C10.8504 15.636 9.96639 16 9.04319 16H3.47839C2.55599 16 1.67121 15.636 1.01841 14.988C0.366408 14.34 0 13.4616 0 12.5456V6.3272ZM12.5216 11.164V7.01841C13.0752 7.01841 13.6064 7.23681 13.9976 7.62561C14.3888 8.01441 14.6088 8.54161 14.6088 9.09121C14.6088 9.64081 14.3888 10.168 13.9976 10.5568C13.6064 10.9456 13.0752 11.164 12.5216 11.164ZM11.1304 7.01841V11.8456V11.8544V11.8632V12.5456C11.1304 13.0952 10.9104 13.6224 10.5192 14.0112C10.128 14.4 9.59679 14.6184 9.04319 14.6184H3.47839C2.92479 14.6184 2.39359 14.4 2.00239 14.0112C1.61119 13.6224 1.39121 13.0952 1.39121 12.5456V7.01841H11.1304ZM6.26079 0C6.64479 0 6.95681 0.309611 6.95681 0.691211V3.56399C6.95681 3.94559 6.64479 4.25439 6.26079 4.25439C5.87679 4.25439 5.5648 3.94559 5.5648 3.56399V0.691211C5.5648 0.309611 5.87679 0 6.26079 0ZM9.73921 0.691211C9.73921 0.309611 9.42799 0 9.04319 0C8.65919 0 8.348 0.309611 8.348 0.691211V3.56399C8.348 3.94559 8.65919 4.25439 9.04319 4.25439C9.42799 4.25439 9.73921 3.94559 9.73921 3.56399V0.691211Z"></path>
        </svg>
