<svg xmlns="http://www.w3.org/2000/svg" width="14" height="14" viewBox="0 0 28 28"><g><g><g><path fill="#8b8d91" d="M14 0c7.732 0 14 6.268 14 14s-6.268 14-14 14S0 21.732 0 14 6.268 0 14 0z"/></g><g><path fill="#fff" d="M13.372 15.601c.487.843.607 1.82.34 2.751C13.265 19.911 11.794 21 10.136 21h-.016c-1.344-.052-2.388-.563-3.104-1.521-1.28-1.712-1.127-4.432-.608-6.24C7.293 10.154 9.39 8 11.506 8c.132 0 .265.009.395.026.12.016.226.081.293.18a.4.4 0 0 1 .053.334l-.385 1.344a.416.416 0 0 1-.342.293c-1.764.256-2.65 2.525-3.018 3.84a3.753 3.753 0 0 1 1.466-.293c.383 0 .777.056 1.17.166a3.71 3.71 0 0 1 2.234 1.71zm8.486 2.752c-.447 1.558-1.918 2.646-3.576 2.646h-.016c-1.344-.051-2.388-.563-3.104-1.52-1.28-1.713-1.127-4.433-.608-6.241C15.439 10.154 17.535 8 19.652 8a3 3 0 0 1 .395.026.42.42 0 0 1 .293.18.4.4 0 0 1 .053.334l-.385 1.344a.416.416 0 0 1-.342.293c-1.764.256-2.65 2.525-3.018 3.84a3.755 3.755 0 0 1 1.466-.293c.383 0 .776.056 1.17.166a3.71 3.71 0 0 1 2.233 1.71c.487.843.608 1.82.341 2.752z"/></g></g></g></svg>