<svg id="icon-roles" viewBox="0 0 24 17" xmlns="http://www.w3.org/2000/svg">
<path fill-rule="evenodd" clip-rule="evenodd" d="M23.4 5.10001C23.8 5.30001 24 5.6 24 6C24 6.4 23.8 6.69999 23.4 6.89999L19 8.89999V14C19 15.7 15.9 17 12 17C8.1 17 5 15.7 5 14V8.89999L0.600006 6.89999C0.200006 6.69999 0 6.4 0 6C0 5.6 0.300006 5.30001 0.600006 5.10001L11.6 0.100006C11.7 6.10203e-06 11.9 0 12 0C12.1 0 12.3 6.10203e-06 12.4 0.100006L23.4 5.10001ZM12 15C14.8 15 17 14.1 17 14V9.79999L12.4 11.9C12.3 12 12.1 12 12 12C11.9 12 11.7 12 11.6 11.9L7 9.79999V14C7 14.2 9.2 15 12 15ZM3.405 5.99899L11.999 9.89899L20.602 5.89899L12.001 2.10001L3.405 5.99899Z"/>
</svg>
