<svg id="icon-share" viewBox="0 0 16 12" xmlns="http://www.w3.org/2000/svg" xmlns:xlink= "http://www.w3.org/1999/xlink">
            <path d="M7.49987 3.00006H5.99984V0.500021C5.99984 0.293018 5.87284 0.108015 5.68084 0.033014C5.48884 -0.0409871 5.26983 0.0110137 5.12983 0.164016L0.129752 5.6641C-0.0432507 5.8541 -0.0432507 6.14511 0.129752 6.33611L5.12983 11.8362C5.22683 11.9422 5.36183 12.0002 5.49984 12.0002C5.56084 12.0002 5.62184 11.9892 5.68084 11.9672C5.87284 11.8922 5.99984 11.7072 5.99984 11.5002V9.00015H7.39087C10.2449 9.00015 13.009 10.0222 15.175 11.8802C15.322 12.0072 15.533 12.0362 15.709 11.9542C15.887 11.8732 16 11.6952 16 11.5002C16 6.81312 12.1869 3.00006 7.49987 3.00006ZM7.39087 8.00014H5.49984C5.22383 8.00014 4.99983 8.22414 4.99983 8.50015V10.2072L1.17577 6.00011L4.99983 1.79304V3.50007C4.99983 3.77607 5.22383 4.00008 5.49984 4.00008H7.49987C9.5029 4.00008 11.3869 4.78009 12.8029 6.19611C13.96 7.35313 14.693 8.82215 14.922 10.4122C12.7319 8.85015 10.0989 8.00014 7.39087 8.00014Z"></path>
        </svg>
