<svg id="icon-smile" viewBox="0 0 20 20" xmlns="http://www.w3.org/2000/svg">
            <path fill-rule="evenodd" clip-rule="evenodd" d="M17.0737 2.9105C15.6735 1.50973 13.8893 0.555618 11.9468 0.168932C10.0044 -0.217755 7.99086 -0.0197175 6.16096 0.738036C4.33106 1.49579 2.76696 2.77923 1.66652 4.42597C0.566082 6.07272 -0.0212631 8.00884 -0.0212631 9.98942C-0.0212631 11.97 0.566082 13.9061 1.66652 15.5529C2.76696 17.1996 4.33106 18.4831 6.16096 19.2408C7.99086 19.9986 10.0044 20.1966 11.9468 19.8099C13.8893 19.4232 15.6735 18.4691 17.0737 17.0683C18.9477 15.1891 20.0001 12.6434 20.0001 9.98942C20.0001 7.33545 18.9477 4.78979 17.0737 2.9105ZM15.9789 15.9737C14.7948 17.1578 13.2862 17.9643 11.6438 18.291C10.0014 18.6177 8.29897 18.4499 6.75184 17.8091C5.20471 17.1683 3.88235 16.0832 2.95198 14.6908C2.02162 13.2984 1.52505 11.6615 1.52505 9.98686C1.52505 8.31226 2.02162 6.67515 2.95198 5.28278C3.88235 3.89041 5.20471 2.80529 6.75184 2.16446C8.29897 1.52364 10.0014 1.35601 11.6438 1.68273C13.2862 2.00945 14.7948 2.81587 15.9789 4.00001C17.565 5.58873 18.4559 7.74192 18.4559 9.98686C18.4559 12.2318 17.565 14.385 15.9789 15.9737ZM6.25791 7.27895C6.25739 7.04711 6.32571 6.82033 6.45418 6.62735C6.58266 6.43437 6.76551 6.2838 6.9796 6.19484C7.19369 6.10588 7.42936 6.08253 7.65677 6.12763C7.88417 6.17274 8.0931 6.2843 8.25703 6.44823C8.42097 6.61216 8.53253 6.82102 8.57763 7.04843C8.62273 7.27584 8.59932 7.51151 8.51036 7.7256C8.4214 7.93969 8.27089 8.12254 8.07791 8.25102C7.88493 8.37949 7.65815 8.44788 7.42631 8.44736C7.27277 8.4477 7.12068 8.41768 6.97876 8.35908C6.83685 8.30048 6.70788 8.21451 6.59932 8.10594C6.49075 7.99738 6.40471 7.86841 6.34612 7.7265C6.28752 7.58458 6.25756 7.43249 6.25791 7.27895ZM11.5631 7.27895C11.5626 7.04734 11.6308 6.82073 11.759 6.62787C11.8873 6.435 12.0698 6.28447 12.2836 6.19535C12.4974 6.10624 12.7328 6.08257 12.9601 6.12725C13.1873 6.17192 13.3963 6.2829 13.5604 6.4463C13.7246 6.60971 13.8365 6.81816 13.8822 7.04522C13.9279 7.27228 13.9053 7.50782 13.8171 7.722C13.729 7.93618 13.5793 8.11934 13.387 8.24845C13.1947 8.37755 12.9684 8.44683 12.7368 8.44736C12.583 8.44777 12.4307 8.41784 12.2884 8.35934C12.1462 8.30083 12.0168 8.21484 11.9078 8.10633C11.7988 7.99782 11.7123 7.86886 11.6532 7.72688C11.594 7.58491 11.5634 7.43275 11.5631 7.27895ZM14.3316 12.0736C13.9445 12.8985 13.3301 13.5958 12.5606 14.0838C11.7911 14.5717 10.8983 14.8301 9.98709 14.8284C9.0759 14.8268 8.18404 14.5652 7.41629 14.0744C6.64853 13.5837 6.03673 12.8841 5.65263 12.0578C5.62387 11.989 5.60897 11.9153 5.60875 11.8408C5.60853 11.7662 5.62299 11.6924 5.65134 11.6235C5.6797 11.5546 5.72139 11.4919 5.77399 11.4391C5.82659 11.3863 5.88905 11.3444 5.95787 11.3158C6.02663 11.2887 6.09978 11.2743 6.17368 11.2736C6.28581 11.2736 6.39537 11.3073 6.48823 11.3701C6.5811 11.433 6.653 11.5222 6.69472 11.6263C6.99314 12.2479 7.46122 12.7723 8.04495 13.1392C8.62868 13.5062 9.30429 13.7007 9.99377 13.7001C10.6833 13.6996 11.3585 13.504 11.9417 13.1361C12.5248 12.7683 12.9921 12.2431 13.2895 11.6211C13.3495 11.4829 13.4619 11.3741 13.6021 11.3188C13.7423 11.2636 13.8987 11.2663 14.0369 11.3263C14.1751 11.3863 14.2838 11.4988 14.339 11.6389C14.3943 11.7791 14.3916 11.9354 14.3316 12.0736Z"></path>
        </svg>

