<svg id="icon-users" viewBox="0 0 24 18" xmlns="http://www.w3.org/2000/svg">
<path fill-rule="evenodd" clip-rule="evenodd" d="M13 4.5C13 3.188 14.0633 2.125 15.375 2.125C16.6867 2.125 17.75 3.188 17.75 4.5C17.75 5.812 16.6867 6.875 15.375 6.875C14.0633 6.875 13 5.812 13 4.5ZM15.375 0.125C12.9588 0.125 11 2.084 11 4.5C11 6.916 12.9588 8.875 15.375 8.875C17.7912 8.875 19.75 6.916 19.75 4.5C19.75 2.084 17.7912 0.125 15.375 0.125ZM5.125 5.625C5.125 4.935 5.6846 4.375 6.375 4.375C7.0654 4.375 7.625 4.935 7.625 5.625C7.625 6.315 7.0654 6.875 6.375 6.875C5.6846 6.875 5.125 6.315 5.125 5.625ZM6.375 2.375C4.5801 2.375 3.125 3.83 3.125 5.625C3.125 7.42 4.5801 8.875 6.375 8.875C8.1699 8.875 9.625 7.42 9.625 5.625C9.625 3.83 8.1699 2.375 6.375 2.375ZM10.625 11.125C10.0727 11.125 9.625 11.573 9.625 12.125V14.875C9.625 15.427 10.0727 15.875 10.625 15.875H20.125C20.6773 15.875 21.125 15.427 21.125 14.875V12.125C21.125 11.573 20.6773 11.125 20.125 11.125H19.3125C18.7602 11.125 18.3125 10.677 18.3125 10.125C18.3125 9.573 18.7602 9.125 19.3125 9.125H20.125C21.7819 9.125 23.125 10.468 23.125 12.125V14.875C23.125 16.532 21.7819 17.875 20.125 17.875H10.625C8.9681 17.875 7.625 16.532 7.625 14.875V12.125C7.625 10.468 8.9681 9.125 10.625 9.125H11.4375C11.9898 9.125 12.4375 9.573 12.4375 10.125C12.4375 10.677 11.9898 11.125 11.4375 11.125H10.625ZM2.875 9.125C1.7704 9.125 0.875 10.02 0.875 11.125V13.625C0.875 14.73 1.7704 15.625 2.875 15.625H5.25C5.8023 15.625 6.25 15.177 6.25 14.625C6.25 14.073 5.8023 13.625 5.25 13.625H2.875V11.125H3.5625C4.1148 11.125 4.5625 10.677 4.5625 10.125C4.5625 9.573 4.1148 9.125 3.5625 9.125H2.875Z"/>
</svg>
