<svg id="icon-analytics" viewBox="0 0 16 16" xmlns="http://www.w3.org/2000/svg" xmlns:xlink= "http://www.w3.org/1999/xlink">
            <path fill-rule="evenodd" clip-rule="evenodd" d="M8 0C7.50933 0 7.11111 0.397956 7.11111 0.888889V15.1111C7.11111 15.602 7.50933 16 8 16C8.49067 16 8.88889 15.602 8.88889 15.1111V0.888889C8.88889 0.397956 8.49067 0 8 0ZM3.55556 4.44444C3.55556 3.95351 3.95378 3.55556 4.44444 3.55556C4.93511 3.55556 5.33333 3.95351 5.33333 4.44444V11.5556C5.33333 12.0465 4.93511 12.4444 4.44444 12.4444C3.95378 12.4444 3.55556 12.0465 3.55556 11.5556V4.44444ZM0 6.22222C0 5.73129 0.398222 5.33333 0.888889 5.33333C1.37956 5.33333 1.77778 5.73129 1.77778 6.22222V9.77778C1.77778 10.2687 1.37956 10.6667 0.888889 10.6667C0.398222 10.6667 0 10.2687 0 9.77778V6.22222ZM10.6667 4.44444C10.6667 3.95351 11.0649 3.55556 11.5556 3.55556C12.0462 3.55556 12.4444 3.95351 12.4444 4.44444V11.5556C12.4444 12.0465 12.0462 12.4444 11.5556 12.4444C11.0649 12.4444 10.6667 12.0465 10.6667 11.5556V4.44444ZM15.1111 5.33333C14.6204 5.33333 14.2222 5.73129 14.2222 6.22222V9.77778C14.2222 10.2687 14.6204 10.6667 15.1111 10.6667C15.6018 10.6667 16 10.2687 16 9.77778V6.22222C16 5.73129 15.6018 5.33333 15.1111 5.33333Z"></path>
        </svg>
