<svg width="21" height="20" xmlns="http://www.w3.org/2000/svg">
  <path fill-rule='evenodd' fill='rgb(157, 160, 165)' d="M21 2.52103V13.1092H19.3579V2.52103C19.3579 2.05762 18.9896 1.68063 18.5368 1.68063H2.46318C2.01041 1.68063 1.64207 2.05762 1.64207 2.52103V8.88018L5.03899 3.79893L7.76365 7.28465L8.99828 5.46825L14.2673 12.4789V13.1092H12.6693L9.06493 8.3133L4.45084 15.1017L3.10277 14.142L6.78552 8.72374L5.14201 6.62119L1.64207 11.8566V15.9664C1.64207 16.4297 2.01041 16.8067 2.46318 16.8067H10.86V18.4874H2.46318C1.10502 18.4874 0 17.3565 0 15.9664V2.52103C0 1.13097 1.10502 0 2.46318 0H18.5368C19.895 0 21 1.13081 21 2.52103ZM15.4989 8.06717C14.1408 8.06717 13.0358 6.93619 13.0358 5.54614C13.0358 4.15608 14.1408 3.02511 15.4989 3.02511C16.8571 3.02511 17.9621 4.15608 17.9621 5.54614C17.9621 6.93619 16.8571 8.06717 15.4989 8.06717ZM16.3201 5.54614C16.3201 5.08273 15.9517 4.7059 15.4989 4.7059C15.0462 4.7059 14.6778 5.08273 14.6778 5.54614C14.6778 6.00954 15.0462 6.38653 15.4989 6.38653C15.9517 6.38653 16.3201 6.00954 16.3201 5.54614ZM17.5516 11.2605H15.9094V14.7899H12.4611V16.4705H15.9094V20H17.5516V16.4705H21V14.7899H17.5516V11.2605Z"></path>
</svg>