<svg id="icon-dark-mode" viewBox="0 0 16 16" xmlns="http://www.w3.org/2000/svg" xmlns:xlink= "http://www.w3.org/1999/xlink">
            <path d="M14.7502 8.5925C14.6322 9.86915 14.1531 11.0858 13.3689 12.1001C12.5846 13.1144 11.5278 13.8843 10.3219 14.3199C9.11611 14.7555 7.81116 14.8386 6.5598 14.5596C5.30843 14.2805 4.16242 13.6509 3.25584 12.7443C2.34926 11.8378 1.71962 10.6917 1.4406 9.44037C1.16158 8.18901 1.24471 6.88406 1.68027 5.67822C2.11582 4.47238 2.88579 3.41552 3.90008 2.63131C4.91437 1.8471 6.13102 1.36798 7.40767 1.25C6.66023 2.2612 6.30056 3.50709 6.39407 4.76106C6.48758 6.01503 7.02807 7.19379 7.91722 8.08295C8.80638 8.9721 9.98514 9.51259 11.2391 9.6061C12.4931 9.69961 13.739 9.33994 14.7502 8.5925V8.5925Z" stroke-width="1.5" stroke-linecap="round" stroke-linejoin="round"></path>
        </svg>
