<svg id="icon-more" viewBox="0 0 18 18" xmlns="http://www.w3.org/2000/svg" xmlns:xlink= "http://www.w3.org/1999/xlink">
            <path d="M9.00001 4.00003C10.1046 4.00003 11 3.10459 11 2.00002C11 0.895437 10.1046 0 9.00001 0C7.89543 0 6.99999 0.895437 6.99999 2.00002C6.99999 3.10459 7.89543 4.00003 9.00001 4.00003Z"></path>
<path d="M9.00001 11C10.1046 11 11 10.1046 11 9C11 7.89542 10.1046 6.99998 9.00001 6.99998C7.89543 6.99998 6.99999 7.89542 6.99999 9C6.99999 10.1046 7.89543 11 9.00001 11Z"></path>
<path d="M9.00001 18C10.1046 18 11 17.1046 11 16C11 14.8954 10.1046 14 9.00001 14C7.89543 14 6.99999 14.8954 6.99999 16C6.99999 17.1046 7.89543 18 9.00001 18Z"></path>
        </svg>
