<svg id="icon-settings" iewbox="0 0 16 16" xmlns="http://www.w3.org/2000/svg" xmlns:xlink= "http://www.w3.org/1999/xlink">
            <path fill-rule="evenodd" clip-rule="evenodd" d="M7.2728 0C6.4696 0 5.81841 0.651195 5.81841 1.45439V2.73279L4.9144 1.82881C4.3464 1.26081 3.42559 1.26081 2.85759 1.82881L1.82881 2.85759C1.26081 3.42559 1.26081 4.3464 1.82881 4.9144L2.73279 5.81841H1.45439C0.651195 5.81841 0 6.4696 0 7.2728V8.7272C0 9.5304 0.651195 10.1816 1.45439 10.1816H2.73279L1.82881 11.0856C1.26081 11.6536 1.26081 12.5744 1.82881 13.1424L2.85759 14.1712C3.42559 14.7392 4.3464 14.7392 4.9144 14.1712L5.81841 13.2672V14.5456C5.81841 15.3488 6.4696 16 7.2728 16H8.7272C9.5304 16 10.1816 15.3488 10.1816 14.5456V13.2672L11.0856 14.1712C11.6536 14.7392 12.5744 14.7392 13.1424 14.1712L14.1712 13.1424C14.7392 12.5744 14.7392 11.6536 14.1712 11.0856L13.2672 10.1816H14.5456C15.3488 10.1816 16 9.5304 16 8.7272V7.2728C16 6.4696 15.3488 5.81841 14.5456 5.81841H13.2672L14.1712 4.9144C14.7392 4.3464 14.7392 3.42559 14.1712 2.85759L13.1424 1.82881C12.5744 1.26081 11.6536 1.26081 11.0856 1.82881L10.1816 2.73279V1.45439C10.1816 0.651195 9.5304 0 8.7272 0H7.2728ZM3.8856 2.85759L4.7896 3.76079C5.7056 4.67759 7.2728 4.02879 7.2728 2.73279V1.45439H8.7272V2.73279C8.7272 4.02879 10.2944 4.67759 11.2104 3.76079L12.1144 2.85759L13.1424 3.8856L12.2392 4.7896C11.3224 5.7056 11.9712 7.2728 13.2672 7.2728H14.5456V8.7272H13.2672C11.9712 8.7272 11.3224 10.2944 12.2392 11.2104L13.1424 12.1144L12.1144 13.1424L11.2104 12.2392C10.2944 11.3224 8.7272 11.9712 8.7272 13.2672V14.5456H7.2728V13.2672C7.2728 11.9712 5.7056 11.3224 4.7896 12.2392L3.8856 13.1424L2.85759 12.1144L3.76079 11.2104C4.67759 10.2944 4.02879 8.7272 2.73279 8.7272H1.45439V7.2728H2.73279C4.02879 7.2728 4.67759 5.7056 3.76079 4.7896L2.85759 3.8856L3.8856 2.85759ZM6.54561 8C6.54561 7.1968 7.1968 6.54561 8 6.54561C8.8032 6.54561 9.45439 7.1968 9.45439 8C9.45439 8.8032 8.8032 9.45439 8 9.45439C7.1968 9.45439 6.54561 8.8032 6.54561 8ZM8 5.09121C6.3936 5.09121 5.09121 6.3936 5.09121 8C5.09121 9.6064 6.3936 10.9088 8 10.9088C9.6064 10.9088 10.9088 9.6064 10.9088 8C10.9088 6.3936 9.6064 5.09121 8 5.09121Z"></path>
        </svg>
