<svg id="icon-topic" viewBox="0 0 16 16" xmlns="http://www.w3.org/2000/svg" xmlns:xlink= "http://www.w3.org/1999/xlink">
            <path fill-rule="evenodd" clip-rule="evenodd" d="M0.846346 11.574C0.28719 10.4677 -0.00333945 9.24101 2.89592e-05 7.99748V7.57737C0.225712 3.46877 3.4695 0.225677 7.53264 0.00172473L8 2.89542e-05C9.24211 -0.00333875 10.4691 0.287116 11.5798 0.847839C14.2863 2.20082 15.9991 4.96908 16 7.99833C16.0025 9.12062 15.7659 10.2303 15.3061 11.2532L16 15.1025C16 15.776 15.6286 15.9503 15.1579 16L11.2556 15.3029C10.2324 15.7626 9.12168 16 7.99747 15.9966C4.97011 15.9958 2.20129 14.2833 0.846346 11.574ZM11.4661 13.598L14.3158 14.3128L13.6008 11.4637C13.5301 11.2507 13.5469 11.0183 13.648 10.8179C14.0892 9.94487 14.3183 8.97917 14.3158 8.00085C14.3149 5.60725 12.9625 3.42163 10.8236 2.35322C9.94694 1.91037 8.98106 1.68136 8.00254 1.68388H7.57895C4.41938 1.85984 1.85939 4.41845 1.68255 7.62367L1.68423 8.00085C1.68171 8.97917 1.90992 9.94487 2.35202 10.8179C3.42233 12.9606 5.60843 14.3119 8 14.3128C8.98105 14.3153 9.94695 14.0871 10.8202 13.6451C11.0206 13.5441 11.253 13.5273 11.4661 13.598Z"></path>
        </svg>
