<svg id="icon-twitter" viewBox="0 0 16 14" xmlns="http://www.w3.org/2000/svg" xmlns:xlink= "http://www.w3.org/1999/xlink">
           <path d="M5.96909 13.5638C5.2772 13.5638 4.56505 13.5078 3.84862 13.3955C2.58678 13.1975 1.30944 12.5375 0.947994 12.3398L0 11.8215L1.02636 11.484C2.14831 11.1151 2.8308 10.8862 3.67564 10.5278C2.8297 10.1181 2.17773 9.38121 1.86388 8.42857L1.62512 7.70372L1.82092 7.73362C1.63525 7.54649 1.48864 7.35655 1.37499 7.18382C0.970821 6.56993 0.756833 5.81981 0.802365 5.17698L0.847287 4.54429L1.22607 4.69102C1.06628 4.38926 0.950802 4.067 0.882931 3.72923C0.717526 2.9055 0.855954 2.03038 1.27282 1.26512L1.60278 0.659406L2.04406 1.18944C3.43968 2.86595 5.20738 3.86046 7.30539 4.15159C7.2197 3.56089 7.28391 2.99083 7.49643 2.47984C7.74387 1.88487 8.18405 1.38035 8.76901 1.02073C9.41866 0.621442 10.2065 0.42796 10.9874 0.475934C11.8159 0.526837 12.5681 0.837262 13.1655 1.37425C13.4572 1.29844 13.6722 1.21751 13.9627 1.10814C14.1375 1.04234 14.3358 0.967633 14.5838 0.882184L15.4979 0.567243L14.9018 2.26964C14.9411 2.26634 14.9816 2.26353 15.024 2.2617L16.0001 2.21751L15.4232 3.00596C15.3901 3.05113 15.3817 3.06395 15.3699 3.08165C15.3234 3.15172 15.2656 3.23887 14.4737 4.29625C14.2755 4.56102 14.1765 4.90587 14.1949 5.26744C14.2651 6.64146 14.0965 7.88462 13.6936 8.96226C13.3124 9.98179 12.7219 10.8565 11.9384 11.5622C10.969 12.4353 9.73275 13.0331 8.26401 13.3387C7.54355 13.4886 6.76987 13.5638 5.96909 13.5638Z"></path>
        </svg>
