<svg id="icon-user" viewBox="0 0 10 11" xmlns="http://www.w3.org/2000/svg" xmlns:xlink= "http://www.w3.org/1999/xlink">
            <g clip-path="url(#clip0)">
<path fill-rule="evenodd" clip-rule="evenodd" d="M5.00102 5.70564C5.56311 5.69638 6.10995 5.52127 6.57286 5.20228C7.03576 4.8833 7.39408 4.43468 7.60289 3.91273C7.81169 3.39078 7.86167 2.81875 7.7465 2.26851C7.63133 1.71826 7.35616 1.21429 6.95555 0.819899C6.55494 0.425508 6.04677 0.158265 5.49479 0.051711C4.94282 -0.0548426 4.37163 0.00407852 3.85301 0.221022C3.33439 0.437966 2.89146 0.803293 2.57975 1.27113C2.26805 1.73897 2.10146 2.28843 2.10099 2.8506C2.10957 3.61294 2.41928 4.34095 2.96257 4.87581C3.50585 5.41066 4.23864 5.70899 5.00102 5.70564ZM9.981 7.99061C9.90638 7.80431 9.80899 7.62795 9.69102 7.46559C9.40662 7.04762 9.03753 6.69409 8.60771 6.42793C8.17789 6.16177 7.69694 5.98893 7.19603 5.92061C7.06641 5.90194 6.9345 5.93227 6.82603 6.00563C6.29356 6.38612 5.65547 6.59065 5.00102 6.59065C4.34657 6.59065 3.70848 6.38612 3.17601 6.00563C3.12415 5.96737 3.06506 5.94011 3.0023 5.92549C2.93954 5.91087 2.87444 5.90919 2.81102 5.92061C2.30865 5.98636 1.82599 6.1581 1.395 6.42445C0.964009 6.69081 0.594517 7.04568 0.311016 7.46559C0.197982 7.63104 0.100903 7.80685 0.021038 7.99061C0.00494898 8.02822 -0.00207541 8.06906 0.000530141 8.10988C0.00313569 8.1507 0.0152519 8.19034 0.0359916 8.2256C0.13826 8.39953 0.251864 8.56655 0.376018 8.7256C0.552354 8.95682 0.748083 9.17262 0.96104 9.37062C1.14519 9.54765 1.33877 9.71456 1.541 9.87062C2.5431 10.5985 3.74992 10.9906 4.98851 10.9906C6.22709 10.9906 7.43391 10.5985 8.43602 9.87062C8.64224 9.71755 8.83772 9.55049 9.02104 9.37062C9.22973 9.16994 9.42353 8.95436 9.60099 8.7256C9.72668 8.56657 9.84195 8.39955 9.94603 8.2256C9.97509 8.19465 9.99403 8.1556 10.0003 8.1136C10.0065 8.07161 9.99979 8.02869 9.981 7.99061Z" fill="#939393"></path>
</g>

        </svg>
