<?xml version="1.0" encoding="UTF-8"?>
<svg width="358px" height="61px" viewBox="0 0 358 61" version="1.1" xmlns="http://www.w3.org/2000/svg" xmlns:xlink="http://www.w3.org/1999/xlink">
    <!-- Generator: Sketch 58 (84663) - https://sketch.com -->
    <title>logo</title>
    <desc>Created with Sketch.</desc>
    <g id="Page-1" stroke="none" stroke-width="1" fill="none" fill-rule="evenodd">
        <g id="logo" fill="#69A9FF" fill-rule="nonzero">
            <g id="Path">
                <path d="M27,38.6694287 L25.0699639,40.6348475 C23.0273363,42.7373113 20.3817683,44.1681988 17.4909529,44.7340473 C17.3679132,44.7579285 17.2436671,44.7806157 17.1182147,44.8021086 C9.28726424,46.0861881 1.83855779,40.9914038 0.282267792,33.2866169 C0.0954389381,32.3485993 0.000907612119,31.3948635 0,30.4387894 C0.0208858832,23.4333891 5.0844136,17.4383607 12.0458383,16.176965 C17.4041013,15.2073903 23.4439083,18.3728371 26.7020507,21.9896376 L22.8202654,25.9443565 C20.6972256,23.3639979 16.2677926,20.9973757 13.0434258,21.5800758 C10.6393414,22.0152851 8.51177702,23.3861514 7.13661054,25.3860495 C5.76144404,27.3859476 5.2534224,29.8480016 5.72617611,32.2215175 C6.67310012,36.9750608 11.3703256,40.1870759 16.1966224,39.3858633 C16.2750302,39.3739227 16.3534379,39.359594 16.4306393,39.3440713 C18.2101432,38.989452 19.8367268,38.1024938 21.0904705,36.8031166 L23.0458383,34.8150107 L27,38.6694287 Z"></path>
                <path d="M37.9302501,26.8637771 L41.0019623,23.742139 C42.3383878,22.3535271 44.1729588,21.5404557 46.1098426,21.4783556 L46.3506667,21.4783556 C48.7906592,21.4784289 51.1287609,22.4464672 52.841718,24.1658291 C54.5546751,25.885191 55.4994678,28.212322 55.4646568,30.6264232 C55.3972261,35.4637708 51.3646256,39.4504124 46.4770994,39.5147515 C43.0140481,39.5612186 39.4931989,37.0698655 37.8905142,34.5201306 L34.3046425,38.119546 C35.4991304,39.6934712 36.771886,40.5918358 38.4588592,42.5911139 C40.4131472,44.9085132 43.8376666,45.0312341 46.5505507,44.9954901 C54.4767523,44.8679382 60.8710933,38.5408047 61,30.6979111 C61,30.6288062 61,30.5597012 61,30.4905963 C60.995347,22.4867772 54.4370962,16.0006564 46.3482585,16 C46.2218258,16 46.0953931,16 45.9689605,16 C42.6094635,16.084594 39.4354011,17.4774165 37.0331802,19.9187281 L34,23.0010478 L37.9302501,26.8637771 Z"></path>
                <path d="M44.8052586,44.2053854 C44.7841283,44.0870468 44.7618242,43.9604245 44.73952,43.8397191 C44.1807002,41.0052557 42.7728729,38.4117898 40.7059855,36.4092381 L23.6327244,19.6524919 C22.264579,18.3390794 21.4634913,16.5360994 21.4023067,14.6325684 C21.4023067,14.5544648 21.4023067,14.4763614 21.4023067,14.3958912 C21.4027018,11.9985363 22.3562892,9.7013687 24.0497635,8.01823506 C25.7432378,6.33510139 28.0352817,5.40645627 30.4131944,5.44002561 C35.1780712,5.50629523 39.1071282,9.46945506 39.170519,14.272819 C39.2163013,17.6762372 36.7616678,21.1364579 34.249513,22.7115448 L38.1644832,26.6013347 C39.7653673,25.3762183 41.1330933,23.8691495 42.2015393,22.1529866 C43.7863099,19.6169903 44.605695,16.8668011 44.5704778,14.2006324 C44.4448059,6.41091861 38.210927,0.126687003 30.4836287,0 L30.2781955,0 C22.3928016,0.00391910487 16.001943,6.44798746 16,14.3970746 C16,14.5225135 16,14.646769 16,14.7710245 C16.0833472,18.0726715 17.4544672,21.1920771 19.8609705,23.5529323 L36.9354056,40.3096785 C38.2124954,41.5400868 39.0847565,43.1355596 39.4346474,44.8810988 C39.4487342,44.9580189 39.4628211,45.0337556 39.4757341,45.1106757 C40.2669454,49.8442198 37.1079695,54.4535085 32.4323095,55.3824664 C30.09885,55.8466271 27.6781977,55.3485717 25.7118185,53.9997083 C23.7454393,52.6508449 22.3974232,50.563733 21.9693023,48.2052302 C21.3952632,45.040856 23.7219412,40.6954624 26.2587479,38.6127029 L22.3707775,34.8057501 C18.8161959,38.0008924 15.7041762,43.9261063 16.6573863,49.1838904 C17.8979645,56.0152068 23.7951874,60.9829355 30.6843663,61 C31.6243366,61 32.5620398,60.9070391 33.4841275,60.7230877 C41.059403,59.1963245 46.0683633,51.8881754 44.8052586,44.2053854 Z"></path>
            </g>
            <path d="M92.3,19 L100.82,19 L89.42,49 L80.6,49 L69.2,19 L77.72,19 L84.98,40 L92.3,19 Z M130.1,45.28 C127.019985,48.3200152 123.260022,49.84 118.82,49.84 C114.379978,49.84 110.630015,48.3100153 107.57,45.25 C104.509985,42.1899847 102.98,38.4400222 102.98,34 C102.98,29.5599778 104.509985,25.8100153 107.57,22.75 C110.630015,19.6899847 114.379978,18.16 118.82,18.16 C123.260022,18.16 127.019985,19.6899847 130.1,22.75 C133.180015,25.8100153 134.72,29.5599778 134.72,34 C134.72,38.4400222 133.180015,42.1999846 130.1,45.28 Z M113,39.94 C114.560008,41.5000078 116.499988,42.28 118.82,42.28 C121.140012,42.28 123.079992,41.5000078 124.64,39.94 C126.200008,38.3799922 126.98,36.400012 126.98,34 C126.98,31.599988 126.200008,29.6200078 124.64,28.06 C123.079992,26.4999922 121.140012,25.72 118.82,25.72 C116.499988,25.72 114.570008,26.4999922 113.03,28.06 C111.489992,29.6200078 110.72,31.599988 110.72,34 C110.72,36.400012 111.479992,38.3799922 113,39.94 Z M144.02,15.4 C142.739994,15.4 141.630005,14.9300047 140.69,13.99 C139.749995,13.0499953 139.28,11.9400064 139.28,10.66 C139.28,9.3799936 139.749995,8.2600048 140.69,7.3 C141.630005,6.3399952 142.739994,5.86 144.02,5.86 C145.340007,5.86 146.469995,6.3399952 147.41,7.3 C148.350005,8.2600048 148.82,9.3799936 148.82,10.66 C148.82,11.9400064 148.350005,13.0499953 147.41,13.99 C146.469995,14.9300047 145.340007,15.4 144.02,15.4 Z M140.18,49 L140.18,19 L147.92,19 L147.92,49 L140.18,49 Z M169.28,49.84 C164.759977,49.84 160.990015,48.3200152 157.97,45.28 C154.949985,42.2399848 153.44,38.4800224 153.44,34 C153.44,29.5199776 154.949985,25.7600152 157.97,22.72 C160.990015,19.6799848 164.759977,18.16 169.28,18.16 C172.200015,18.16 174.859988,18.859993 177.26,20.26 C179.660012,21.66 181.479994,23.5399882 182.72,25.9 L176.06,29.8 C175.459997,28.5599938 174.550006,27.5800036 173.33,26.86 C172.109994,26.1399964 170.740008,25.78 169.22,25.78 C166.899988,25.78 164.980008,26.5499923 163.46,28.09 C161.94,29.6300077 161.18,31.599988 161.18,34 C161.18,36.3600118 161.94,38.3099923 163.46,39.85 C164.980008,41.3900077 166.899988,42.16 169.22,42.16 C170.780008,42.16 172.169994,41.8100035 173.39,41.11 C174.610006,40.4099965 175.519997,39.4400062 176.12,38.2 L182.84,42.04 C181.519993,44.4000118 179.660012,46.2899929 177.26,47.71 C174.859988,49.1300071 172.200015,49.84 169.28,49.84 Z M193.7,37.18 C194.740005,40.9400188 197.559977,42.82 202.16,42.82 C205.120015,42.82 207.359992,41.82001 208.88,39.82 L215.12,43.42 C212.159985,47.7000214 207.800029,49.84 202.04,49.84 C197.079975,49.84 193.100015,48.340015 190.1,45.34 C187.099985,42.339985 185.6,38.5600228 185.6,34 C185.6,29.4799774 187.079985,25.7100151 190.04,22.69 C193.000015,19.6699849 196.799977,18.16 201.44,18.16 C205.840022,18.16 209.469986,19.6799848 212.33,22.72 C215.190014,25.7600152 216.62,29.5199776 216.62,34 C216.62,35.000005 216.520001,36.0599944 216.32,37.18 L193.7,37.18 Z M193.58,31.18 L208.88,31.18 C208.439998,29.1399898 207.530007,27.62 206.15,26.62 C204.769993,25.62 203.200009,25.12 201.44,25.12 C199.35999,25.12 197.640007,25.6499947 196.28,26.71 C194.919993,27.7700053 194.020002,29.2599904 193.58,31.18 Z M229.16,27.52 C229.16,28.320004 229.689995,28.9699975 230.75,29.47 C231.692227,29.9144467 232.816168,30.3114805 234.12185,30.6611107 L234.62,30.79 C236.140008,31.1700019 237.659992,31.6499971 239.18,32.23 C240.700008,32.8100029 241.989995,33.7799932 243.05,35.14 C244.110005,36.5000068 244.64,38.1999898 244.64,40.24 C244.64,43.3200154 243.490012,45.6899917 241.19,47.35 C238.889989,49.0100083 236.020017,49.84 232.58,49.84 C226.419969,49.84 222.220011,47.4600238 219.98,42.7 L226.7,38.92 C227.580004,41.520013 229.539985,42.82 232.58,42.82 C235.340014,42.82 236.72,41.9600086 236.72,40.24 C236.72,39.439996 236.190005,38.7900025 235.13,38.29 C234.187773,37.8455533 233.063832,37.4406184 231.75815,37.0751856 L231.26,36.94 C229.739992,36.539998 228.220008,36.040003 226.7,35.44 C225.179992,34.839997 223.890005,33.8900065 222.83,32.59 C221.769995,31.2899935 221.24,29.66 221.24,27.7 C221.24,24.7399852 222.329989,22.4100085 224.51,20.71 C226.690011,19.0099915 229.399984,18.16 232.64,18.16 C235.080012,18.16 237.29999,18.7099945 239.3,19.81 C241.30001,20.9100055 242.879994,22.4799898 244.04,24.52 L237.44,28.12 C236.48,26.0799898 234.880011,25.06 232.64,25.06 C231.639995,25.06 230.810003,25.2799978 230.15,25.72 C229.489997,26.16 229.16,26.7599962 229.16,27.52 Z M267.08,26.44 L260.3,26.44 L260.3,38.92 C260.3,39.9600052 260.559997,40.7199976 261.08,41.2 C261.600003,41.6800024 262.359995,41.9499997 263.36,42.01 C264.360005,42.0700003 265.599993,42.0600004 267.08,41.98 L267.08,49 C261.759973,49.6 258.010011,49.1 255.83,47.5 C253.649989,45.899992 252.56,43.0400206 252.56,38.92 L252.56,26.44 L247.34,26.44 L247.34,19 L252.56,19 L252.56,12.94 L260.3,10.6 L260.3,19 L267.08,19 L267.08,26.44 Z M298.58,45.28 C295.499985,48.3200152 291.740022,49.84 287.3,49.84 C282.859978,49.84 279.110015,48.3100153 276.05,45.25 C272.989985,42.1899847 271.46,38.4400222 271.46,34 C271.46,29.5599778 272.989985,25.8100153 276.05,22.75 C279.110015,19.6899847 282.859978,18.16 287.3,18.16 C291.740022,18.16 295.499985,19.6899847 298.58,22.75 C301.660015,25.8100153 303.2,29.5599778 303.2,34 C303.2,38.4400222 301.660015,42.1999846 298.58,45.28 Z M281.48,39.94 C283.040008,41.5000078 284.979988,42.28 287.3,42.28 C289.620012,42.28 291.559992,41.5000078 293.12,39.94 C294.680008,38.3799922 295.46,36.400012 295.46,34 C295.46,31.599988 294.680008,29.6200078 293.12,28.06 C291.559992,26.4999922 289.620012,25.72 287.3,25.72 C284.979988,25.72 283.050008,26.4999922 281.51,28.06 C279.969992,29.6200078 279.2,31.599988 279.2,34 C279.2,36.400012 279.959992,38.3799922 281.48,39.94 Z M316.4,24.16 C317.120004,22.2399904 318.309992,20.8000048 319.97,19.84 C321.630008,18.8799952 323.47999,18.4 325.52,18.4 L325.52,27.04 C323.159988,26.7599986 321.050009,27.2399938 319.19,28.48 C317.329991,29.7200062 316.4,31.7799856 316.4,34.66 L316.4,49 L308.66,49 L308.66,19 L316.4,19 L316.4,24.16 Z M349.58,19 L357.86,19 L346.94,49 C345.379992,53.3200216 343.310013,56.4499903 340.73,58.39 C338.149987,60.3300097 334.940019,61.200001 331.1,61 L331.1,53.8 C333.18001,53.8400002 334.829994,53.4000046 336.05,52.48 C337.270006,51.5599954 338.239996,50.0800102 338.96,48.04 L326.66,19 L335.12,19 L342.92,39.16 L349.58,19 Z" id="ciscord"></path>
        </g>
    </g>
</svg>