<?xml version="1.0" encoding="UTF-8"?>
<svg width="289px" height="56px" viewBox="0 0 289 56" version="1.1" xmlns="http://www.w3.org/2000/svg" xmlns:xlink="http://www.w3.org/1999/xlink">
    <!-- Generator: Sketch 58 (84663) - https://sketch.com -->
    <title>logo2-white</title>
    <desc>Created with Sketch.</desc>
    <g id="Page-1" stroke="none" stroke-width="1" fill="none" fill-rule="evenodd">
        <g id="logo2-white" fill="#FFFFFF" fill-rule="nonzero">
            <path d="M23.3,14 L31.82,14 L20.42,44 L11.6,44 L0.2,14 L8.72,14 L15.98,35 L23.3,14 Z M61.1,40.28 C58.019985,43.3200152 54.260022,44.84 49.82,44.84 C45.379978,44.84 41.630015,43.3100153 38.57,40.25 C35.509985,37.1899847 33.98,33.4400222 33.98,29 C33.98,24.5599778 35.509985,20.8100153 38.57,17.75 C41.630015,14.6899847 45.379978,13.16 49.82,13.16 C54.260022,13.16 58.019985,14.6899847 61.1,17.75 C64.180015,20.8100153 65.72,24.5599778 65.72,29 C65.72,33.4400222 64.180015,37.1999846 61.1,40.28 Z M44,34.94 C45.560008,36.5000078 47.499988,37.28 49.82,37.28 C52.140012,37.28 54.079992,36.5000078 55.64,34.94 C57.200008,33.3799922 57.98,31.400012 57.98,29 C57.98,26.599988 57.200008,24.6200078 55.64,23.06 C54.079992,21.4999922 52.140012,20.72 49.82,20.72 C47.499988,20.72 45.570008,21.4999922 44.03,23.06 C42.489992,24.6200078 41.72,26.599988 41.72,29 C41.72,31.400012 42.479992,33.3799922 44,34.94 Z M75.02,10.4 C73.739994,10.4 72.630005,9.9300047 71.69,8.99 C70.749995,8.0499953 70.28,6.9400064 70.28,5.66 C70.28,4.3799936 70.749995,3.2600048 71.69,2.3 C72.630005,1.3399952 73.739994,0.86 75.02,0.86 C76.340007,0.86 77.469995,1.3399952 78.41,2.3 C79.350005,3.2600048 79.82,4.3799936 79.82,5.66 C79.82,6.9400064 79.350005,8.0499953 78.41,8.99 C77.469995,9.9300047 76.340007,10.4 75.02,10.4 Z M71.18,44 L71.18,14 L78.92,14 L78.92,44 L71.18,44 Z M100.28,44.84 C95.759977,44.84 91.990015,43.3200152 88.97,40.28 C85.949985,37.2399848 84.44,33.4800224 84.44,29 C84.44,24.5199776 85.949985,20.7600152 88.97,17.72 C91.990015,14.6799848 95.759977,13.16 100.28,13.16 C103.200015,13.16 105.859988,13.859993 108.26,15.26 C110.660012,16.66 112.479994,18.5399882 113.72,20.9 L107.06,24.8 C106.459997,23.5599938 105.550006,22.5800036 104.33,21.86 C103.109994,21.1399964 101.740008,20.78 100.22,20.78 C97.899988,20.78 95.980008,21.5499923 94.46,23.09 C92.94,24.6300077 92.18,26.599988 92.18,29 C92.18,31.3600118 92.94,33.3099923 94.46,34.85 C95.980008,36.3900077 97.899988,37.16 100.22,37.16 C101.780008,37.16 103.169994,36.8100035 104.39,36.11 C105.610006,35.4099965 106.519997,34.4400062 107.12,33.2 L113.84,37.04 C112.519993,39.4000118 110.660012,41.2899929 108.26,42.71 C105.859988,44.1300071 103.200015,44.84 100.28,44.84 Z M124.7,32.18 C125.740005,35.9400188 128.559977,37.82 133.16,37.82 C136.120015,37.82 138.359992,36.82001 139.88,34.82 L146.12,38.42 C143.159985,42.7000214 138.800029,44.84 133.04,44.84 C128.079975,44.84 124.100015,43.340015 121.1,40.34 C118.099985,37.339985 116.6,33.5600228 116.6,29 C116.6,24.4799774 118.079985,20.7100151 121.04,17.69 C124.000015,14.6699849 127.799977,13.16 132.44,13.16 C136.840022,13.16 140.469986,14.6799848 143.33,17.72 C146.190014,20.7600152 147.62,24.5199776 147.62,29 C147.62,30.000005 147.520001,31.0599944 147.32,32.18 L124.7,32.18 Z M124.58,26.18 L139.88,26.18 C139.439998,24.1399898 138.530007,22.62 137.15,21.62 C135.769993,20.62 134.200009,20.12 132.44,20.12 C130.35999,20.12 128.640007,20.6499947 127.28,21.71 C125.919993,22.7700053 125.020002,24.2599904 124.58,26.18 Z M160.16,22.52 C160.16,23.320004 160.689995,23.9699975 161.75,24.47 C162.692227,24.9144467 163.816168,25.3114805 165.12185,25.6611107 L165.62,25.79 C167.140008,26.1700019 168.659992,26.6499971 170.18,27.23 C171.700008,27.8100029 172.989995,28.7799932 174.05,30.14 C175.110005,31.5000068 175.64,33.1999898 175.64,35.24 C175.64,38.3200154 174.490012,40.6899917 172.19,42.35 C169.889989,44.0100083 167.020017,44.84 163.58,44.84 C157.419969,44.84 153.220011,42.4600238 150.98,37.7 L157.7,33.92 C158.580004,36.520013 160.539985,37.82 163.58,37.82 C166.340014,37.82 167.72,36.9600086 167.72,35.24 C167.72,34.439996 167.190005,33.7900025 166.13,33.29 C165.187773,32.8455533 164.063832,32.4406184 162.75815,32.0751856 L162.26,31.94 C160.739992,31.539998 159.220008,31.040003 157.7,30.44 C156.179992,29.839997 154.890005,28.8900065 153.83,27.59 C152.769995,26.2899935 152.24,24.66 152.24,22.7 C152.24,19.7399852 153.329989,17.4100085 155.51,15.71 C157.690011,14.0099915 160.399984,13.16 163.64,13.16 C166.080012,13.16 168.29999,13.7099945 170.3,14.81 C172.30001,15.9100055 173.879994,17.4799898 175.04,19.52 L168.44,23.12 C167.48,21.0799898 165.880011,20.06 163.64,20.06 C162.639995,20.06 161.810003,20.2799978 161.15,20.72 C160.489997,21.16 160.16,21.7599962 160.16,22.52 Z M198.08,21.44 L191.3,21.44 L191.3,33.92 C191.3,34.9600052 191.559997,35.7199976 192.08,36.2 C192.600003,36.6800024 193.359995,36.9499997 194.36,37.01 C195.360005,37.0700003 196.599993,37.0600004 198.08,36.98 L198.08,44 C192.759973,44.6 189.010011,44.1 186.83,42.5 C184.649989,40.899992 183.56,38.0400206 183.56,33.92 L183.56,21.44 L178.34,21.44 L178.34,14 L183.56,14 L183.56,7.94 L191.3,5.6 L191.3,14 L198.08,14 L198.08,21.44 Z M229.58,40.28 C226.499985,43.3200152 222.740022,44.84 218.3,44.84 C213.859978,44.84 210.110015,43.3100153 207.05,40.25 C203.989985,37.1899847 202.46,33.4400222 202.46,29 C202.46,24.5599778 203.989985,20.8100153 207.05,17.75 C210.110015,14.6899847 213.859978,13.16 218.3,13.16 C222.740022,13.16 226.499985,14.6899847 229.58,17.75 C232.660015,20.8100153 234.2,24.5599778 234.2,29 C234.2,33.4400222 232.660015,37.1999846 229.58,40.28 Z M212.48,34.94 C214.040008,36.5000078 215.979988,37.28 218.3,37.28 C220.620012,37.28 222.559992,36.5000078 224.12,34.94 C225.680008,33.3799922 226.46,31.400012 226.46,29 C226.46,26.599988 225.680008,24.6200078 224.12,23.06 C222.559992,21.4999922 220.620012,20.72 218.3,20.72 C215.979988,20.72 214.050008,21.4999922 212.51,23.06 C210.969992,24.6200078 210.2,26.599988 210.2,29 C210.2,31.400012 210.959992,33.3799922 212.48,34.94 Z M247.4,19.16 C248.120004,17.2399904 249.309992,15.8000048 250.97,14.84 C252.630008,13.8799952 254.47999,13.4 256.52,13.4 L256.52,22.04 C254.159988,21.7599986 252.050009,22.2399938 250.19,23.48 C248.329991,24.7200062 247.4,26.7799856 247.4,29.66 L247.4,44 L239.66,44 L239.66,14 L247.4,14 L247.4,19.16 Z M280.58,14 L288.86,14 L277.94,44 C276.379992,48.3200216 274.310013,51.4499903 271.73,53.39 C269.149987,55.3300097 265.940019,56.200001 262.1,56 L262.1,48.8 C264.18001,48.8400002 265.829994,48.4000046 267.05,47.48 C268.270006,46.5599954 269.239996,45.0800102 269.96,43.04 L257.66,14 L266.12,14 L273.92,34.16 L280.58,14 Z" id="ciscord"></path>
        </g>
    </g>
</svg>