<?xml version="1.0" encoding="UTF-8"?>
<svg width="420px" height="463px" viewBox="0 0 420 463" version="1.1" xmlns="http://www.w3.org/2000/svg" xmlns:xlink="http://www.w3.org/1999/xlink">
    <!-- Generator: Sketch 58 (84663) - https://sketch.com -->
    <title>Widget_icon_blue</title>
    <desc>Created with Sketch.</desc>
    <defs>
        <linearGradient x1="27.1144887%" y1="12.1945652%" x2="73.3796609%" y2="87.6623334%" id="linearGradient-1">
            <stop stop-color="#4B8DFF" offset="0%"></stop>
            <stop stop-color="#86C6FE" offset="100%"></stop>
        </linearGradient>
        <linearGradient x1="34.8543544%" y1="40.7245358%" x2="63.3530401%" y2="59.3060972%" id="linearGradient-2">
            <stop stop-color="#AFE0FA" offset="0%"></stop>
            <stop stop-color="#86C6FE" offset="100%"></stop>
        </linearGradient>
        <linearGradient x1="-11.19%" y1="20.44864%" x2="4630.028%" y2="2235.20512%" id="linearGradient-3">
            <stop stop-color="#4E8FFF" offset="0%"></stop>
            <stop stop-color="#5798FF" offset="5.952287%"></stop>
            <stop stop-color="#6CACFE" offset="22.91%"></stop>
            <stop stop-color="#7BBBFE" offset="41.94%"></stop>
            <stop stop-color="#83C3FE" offset="64.57%"></stop>
            <stop stop-color="#86C6FE" offset="100%"></stop>
        </linearGradient>
        <linearGradient x1="-255.592%" y1="-59.9296%" x2="1470.098%" y2="559.22688%" id="linearGradient-4">
            <stop stop-color="#B6E4F9" offset="0%"></stop>
            <stop stop-color="#90CCFD" offset="62.42%"></stop>
            <stop stop-color="#86C6FE" offset="76.99%"></stop>
        </linearGradient>
        <linearGradient x1="-1800.03333%" y1="-2250.96667%" x2="5935.33%" y2="7361.69167%" id="linearGradient-5">
            <stop stop-color="#4E8FFF" offset="0%"></stop>
            <stop stop-color="#5798FF" offset="5.952287%"></stop>
            <stop stop-color="#6CACFE" offset="22.91%"></stop>
            <stop stop-color="#7BBBFE" offset="41.94%"></stop>
            <stop stop-color="#83C3FE" offset="64.57%"></stop>
            <stop stop-color="#86C6FE" offset="100%"></stop>
        </linearGradient>
        <linearGradient x1="-2991.28%" y1="-2793.35%" x2="-115.13%" y2="-106.036111%" id="linearGradient-6">
            <stop stop-color="#B6E4F9" offset="0%"></stop>
            <stop stop-color="#90CCFD" offset="62.42%"></stop>
            <stop stop-color="#86C6FE" offset="76.99%"></stop>
        </linearGradient>
        <linearGradient x1="11.5984375%" y1="12.509668%" x2="3637.55%" y2="3560.93237%" id="linearGradient-7">
            <stop stop-color="#4E8FFF" offset="0%"></stop>
            <stop stop-color="#5798FF" offset="5.952287%"></stop>
            <stop stop-color="#6CACFE" offset="22.91%"></stop>
            <stop stop-color="#7BBBFE" offset="41.94%"></stop>
            <stop stop-color="#83C3FE" offset="64.57%"></stop>
            <stop stop-color="#86C6FE" offset="100%"></stop>
        </linearGradient>
        <linearGradient x1="-164.790625%" y1="-107.99834%" x2="1183.40469%" y2="883.997363%" id="linearGradient-8">
            <stop stop-color="#B6E4F9" offset="0%"></stop>
            <stop stop-color="#90CCFD" offset="62.42%"></stop>
            <stop stop-color="#86C6FE" offset="76.99%"></stop>
        </linearGradient>
        <linearGradient x1="-0.799404959%" y1="-27.9472727%" x2="4065.06099%" y2="6263.97455%" id="linearGradient-9">
            <stop stop-color="#4E8FFF" offset="0%"></stop>
            <stop stop-color="#5798FF" offset="5.952287%"></stop>
            <stop stop-color="#6CACFE" offset="22.91%"></stop>
            <stop stop-color="#7BBBFE" offset="41.94%"></stop>
            <stop stop-color="#83C3FE" offset="64.57%"></stop>
            <stop stop-color="#86C6FE" offset="100%"></stop>
        </linearGradient>
        <linearGradient x1="-187.900793%" y1="-226.203636%" x2="1323.86069%" y2="1532.76545%" id="linearGradient-10">
            <stop stop-color="#B6E4F9" offset="0%"></stop>
            <stop stop-color="#90CCFD" offset="62.42%"></stop>
            <stop stop-color="#86C6FE" offset="76.99%"></stop>
        </linearGradient>
    </defs>
    <g id="Page-1" stroke="none" stroke-width="1" fill="none" fill-rule="evenodd">
        <g id="Widget_icon_blue">
            <path d="M189.2,112.9 C190.6,112.9 192,112.8 193.3,112.5 C192,112.8 190.6,112.9 189.2,112.9 L189.2,112.9 Z" id="Path"></path>
            <path d="M385.3,90.7 L368.7,81.1 L243.9,9.1 C241.1,7.5 238.1,6.1 235.1,4.9 C222.7,1.6 209.6,10.8 209.6,24.6 L209.6,92.6 C209.6,98.2 207.3,103.3 203.6,107 C202.7,107.9 201.7,108.8 200.6,109.5 C198.4,111 196,112 193.3,112.6 C192,112.9 190.6,113 189.2,113 L189.2,113 L33.9,113 C31.1,113 28.5,113.3 25.9,113.9 C24.2,114.3 22.5,114.9 20.9,115.5 C20.1,115.8 19.3,116.2 18.6,116.6 C16.3,117.8 14.1,119.2 12.2,120.8 C10.2,122.4 8.5,124.3 6.9,126.3 C4.8,129 3.2,132.1 2,135.3 C0.7,140.6 0,146 0,151.6 L0,313.1 C0,337.3 12.9,359.7 33.9,371.8 L83.9,400.7 L175.7,453.7 C196.7,465.8 222.5,465.8 243.5,453.7 L335.3,400.7 L385.3,371.8 C406.3,359.7 419.2,337.3 419.2,313.1 L419.2,149.5 C419.2,125.2 406.2,102.8 385.3,90.7 Z" id="Shape" fill="url(#linearGradient-1)" fill-rule="nonzero"></path>
            <path d="M12.2393822,121.335303 C14.2471042,119.728213 16.3552124,118.221566 18.6640927,117.116691 C19.4671815,116.714919 20.2702703,116.413589 20.972973,116.011817 C22.5791506,115.308715 24.2857143,114.806499 25.992278,114.404727 C28.6023166,113.802068 31.2123552,113.500739 34.023166,113.500739 L189.92278,113.500739 C191.328185,113.500739 192.733591,113.400295 194.03861,113.098966 C196.648649,112.59675 199.158301,111.491876 201.366795,109.985229 C202.471042,109.282127 203.474903,108.378139 204.378378,107.474151 C208.092664,103.757755 210.401544,98.6351551 210.401544,93.0103397 L210.401544,24.7090103 C210.401544,10.8478582 223.552124,1.6070901 236,4.92171344 C227.76834,1.6070901 219.034749,0 210.401544,0 C198.555985,0.100443131 186.710425,3.21418021 176.169884,9.44165436 L33.5212355,93.6129985 C24.988417,98.6351551 17.7606178,105.465288 12.2393822,113.400295 C7.42084942,120.230428 4.00772201,127.864106 2,136 C3.2046332,132.685377 4.81081081,129.672083 6.91891892,126.960118 C8.42471042,124.850812 10.2316602,122.942393 12.2393822,121.335303 Z" id="Path" fill="url(#linearGradient-2)" fill-rule="nonzero"></path>
            <path d="M25.9,113.9 C24.2,114.3 22.5,114.9 20.9,115.5 C22.5,114.8 24.2,114.3 25.9,113.9 Z" id="Path" fill="url(#linearGradient-3)" fill-rule="nonzero"></path>
            <path d="M25.9,113.9 C24.2,114.3 22.5,114.9 20.9,115.5 C22.5,114.8 24.2,114.3 25.9,113.9 Z" id="Path" fill="url(#linearGradient-4)" fill-rule="nonzero"></path>
            <path d="M203.6,107 C202.7,107.9 201.7,108.8 200.6,109.5 C201.7,108.7 202.7,107.9 203.6,107 Z" id="Path" fill="url(#linearGradient-5)" fill-rule="nonzero"></path>
            <path d="M203.6,107 C202.7,107.9 201.7,108.8 200.6,109.5 C201.7,108.7 202.7,107.9 203.6,107 Z" id="Path" fill="url(#linearGradient-6)" fill-rule="nonzero"></path>
            <path d="M18.6,116.6 C16.3,117.8 14.1,119.2 12.2,120.8 C14.1,119.2 16.3,117.7 18.6,116.6 Z" id="Path" fill="url(#linearGradient-7)" fill-rule="nonzero"></path>
            <path d="M18.6,116.6 C16.3,117.8 14.1,119.2 12.2,120.8 C14.1,119.2 16.3,117.7 18.6,116.6 Z" id="Path" fill="url(#linearGradient-8)" fill-rule="nonzero"></path>
            <path d="M6.9,126.3 C8.4,124.3 10.2,122.4 12.2,120.8 C10.2,122.4 8.4,124.3 6.9,126.3 Z" id="Path" fill="url(#linearGradient-9)" fill-rule="nonzero"></path>
            <path d="M6.9,126.3 C8.4,124.3 10.2,122.4 12.2,120.8 C10.2,122.4 8.4,124.3 6.9,126.3 Z" id="Path" fill="url(#linearGradient-10)" fill-rule="nonzero"></path>
        </g>
    </g>
</svg>